<svg id="Layer_1" height="512" viewBox="0 0 512 512" width="512" xmlns="http://www.w3.org/2000/svg" data-name="Layer 1"><path d="m466.112 142.375c4.954-26.112-10.746-54.152-44.208-78.955-32.224-23.884-77.473-42.253-127.411-51.72s-98.772-8.94-137.507 1.49c-40.22 10.831-65.1 31.177-70.053 57.289-2.1 11.042-.483 22.428 4.589 33.768a207.339 207.339 0 0 0 47.222 304.113c-13.225 10.122-20.181 21.884-20.181 34.394 0 35.923 58.565 64.062 133.329 64.062s133.327-28.139 133.327-64.062c0-12.5-6.941-24.247-20.136-34.36a206.841 206.841 0 0 0 84.391-236.276c8.873-8.696 14.544-18.701 16.638-29.743zm-367.39-69.659c4.049-21.344 25.849-38.369 61.385-47.938 19.359-5.213 41.421-7.825 64.963-7.825a362.874 362.874 0 0 1 67.187 6.536c48.2 9.138 91.7 26.743 122.5 49.572 29.562 21.912 43.613 45.734 39.564 67.078s-25.849 38.369-61.385 47.938c-37.022 9.969-83.955 10.427-132.15 1.289s-91.7-26.743-122.5-49.573c-29.562-21.911-43.613-45.733-39.564-67.077zm31.841 370.038c0-6.833 3.445-17.023 19.311-27.629q4 2.267 8.112 4.354a65.618 65.618 0 0 0 -9.532 8.634c-7.766 8.627-12.079 18.44-12.868 28.954-3.293-4.674-5.023-9.504-5.023-14.313zm202.46-17.261a55.928 55.928 0 0 1 13.491 10.926c8.572 9.672 11.461 20.8 8.626 33.105a93.342 93.342 0 0 1 -11.448 6.781c-.553-21.759-13.087-37.774-21.912-46.4q5.692-2.041 11.243-4.412zm-24.5 8.673c6.33 5.124 24.977 22.476 23.022 47.471a177.8 177.8 0 0 1 -24.047 7.22c-1.6-22.387-10.195-40.771-15.829-50.648q8.531-1.671 16.853-4.043zm-29.474 6.134c4.446 7.053 15.416 26.66 16.763 50.928a258.717 258.717 0 0 1 -37.812 3.524v-52.793a205.656 205.656 0 0 0 21.049-1.659zm-33.049 54.449a260.547 260.547 0 0 1 -37.845-3.551c1.366-24.27 12.43-44.008 16.83-51a207.046 207.046 0 0 0 21.015 1.729zm-49.856-5.925a177.368 177.368 0 0 1 -24.05-7.243c-1.907-25.023 16.994-42.514 23.165-47.517q8.261 2.343 16.78 4.025c-5.629 9.843-14.279 28.272-15.895 50.735zm-36.2-12.591a92.958 92.958 0 0 1 -11.479-6.828c-2.788-12.255.111-23.345 8.656-32.986a55.9 55.9 0 0 1 13.613-11q5.535 2.352 11.225 4.383c-8.816 8.598-21.429 24.623-22.011 46.431zm213.271-33.479c0 4.871-1.779 9.762-5.154 14.492-.753-10.581-5.069-20.457-12.88-29.133a65.67 65.67 0 0 0 -9.43-8.558q4.15-2.109 8.2-4.4c15.831 10.596 19.268 20.773 19.268 27.599zm70.6-171.436c-17.727 93.444-99.764 158.73-191.606 158.723a195.071 195.071 0 0 1 -154.422-314.4c7.6 11.593 18.789 23 33.35 33.791 32.224 23.885 77.473 42.253 127.411 51.722a374.779 374.779 0 0 0 69.394 6.735c24.622 0 47.761-2.747 68.113-8.227 17.5-4.713 32.1-11.23 43.413-19.239a195.259 195.259 0 0 1 4.351 90.895z"/><path d="m185.456 130.012c20.645 13.626 49.351 24.417 80.828 30.385a267.42 267.42 0 0 0 49.4 4.841 180.047 180.047 0 0 0 36.946-3.53c25.962-5.5 41.865-16.987 44.781-32.359s-7.674-31.889-29.82-46.506c-20.645-13.626-49.351-24.417-80.828-30.385s-62.143-6.435-86.344-1.312c-25.962 5.5-41.866 16.988-44.782 32.36s7.673 31.894 29.819 46.506zm-18.032-44.27c1.928-10.16 14.859-18.492 35.477-22.856a167.917 167.917 0 0 1 34.457-3.28 255.448 255.448 0 0 1 47.166 4.642c29.954 5.679 57.106 15.84 76.455 28.61 17.586 11.609 26.569 24.094 24.641 34.254s-14.858 18.492-35.477 22.856c-22.68 4.8-51.67 4.319-81.622-1.361s-57.106-15.84-76.455-28.61c-17.587-11.609-26.566-24.097-24.642-34.255z"/><path d="m244.6 117.493c7.168 4.731 17.051 8.462 27.831 10.506a91.261 91.261 0 0 0 16.858 1.646 62.841 62.841 0 0 0 12.888-1.235c13.714-2.9 17-9.864 17.737-13.755s.231-11.571-11.469-19.293c-7.169-4.731-17.052-8.463-27.831-10.506s-21.342-2.189-29.746-.411c-13.715 2.9-17 9.864-17.738 13.755s-.23 11.571 11.47 19.293zm.319-17.057c.395-2.082 7.168-5.244 18.854-5.244a78.676 78.676 0 0 1 14.606 1.454c9.119 1.729 17.668 4.911 23.456 8.731 4.937 3.259 6.478 6.049 6.29 7.042-.54 2.838-12.932 7.681-33.459 3.79-9.119-1.729-17.669-4.912-23.457-8.731-4.937-3.259-6.479-6.049-6.29-7.042z"/></svg>